<svg width="256" height="62" viewBox="0 0 256 62" fill="none" xmlns="http://www.w3.org/2000/svg">
<g clip-path="url(#clip0)">
<path fill-rule="evenodd" clip-rule="evenodd" d="M166.164 44.5932C168.88 44.5932 171.166 43.682 172.972 41.8966C174.778 40.0234 175.688 37.7405 175.688 34.9737C175.688 32.2088 174.778 29.9239 172.972 28.121C171.166 26.2673 168.88 25.3561 166.164 25.3561C163.463 25.3561 161.178 26.2654 159.373 28.121C157.567 29.9239 156.674 32.2088 156.674 34.9737C156.674 37.7385 157.567 40.0234 159.371 41.8966C161.178 43.682 163.463 44.5932 166.164 44.5932ZM175.688 19.9473H182.186V50.0039H175.688V45.6742C173.212 49.1122 169.722 50.7941 165.149 50.7941C161.006 50.7941 157.499 49.282 154.558 46.2244C151.618 43.1512 150.174 39.3561 150.174 34.9737C150.174 30.5249 151.618 26.8 154.56 23.7249C157.499 20.6673 161.006 19.1551 165.149 19.1551C169.722 19.1551 173.212 20.839 175.688 24.2049V19.9473ZM207.372 26.1971H199.911V40.6263C199.911 44.4741 202.439 44.4039 207.372 44.1639V50.0039C197.435 51.2059 193.413 48.4917 193.413 40.6263V26.1971H187.877V19.9454H193.413L193.401 11.5278H199.911V19.9454H207.372V26.1971ZM213.32 50.0039H219.82V19.9454H213.322V50.0039H213.32ZM213.613 14.2439C211.98 12.56 211.98 10.0176 213.613 8.40195C213.994 8.00305 214.451 7.68543 214.958 7.4684C215.464 7.25138 216.01 7.13947 216.561 7.13947C217.113 7.13947 217.658 7.25138 218.165 7.4684C218.672 7.68543 219.129 8.00305 219.509 8.40195C221.125 10.0176 221.125 12.5581 219.441 14.2439C217.827 15.8576 215.298 15.8576 213.613 14.2439ZM230.185 46.2244C227.178 43.1493 225.665 39.4224 225.665 34.9737C225.665 30.4585 227.178 26.7473 230.187 23.7249C233.265 20.6673 237.046 19.1551 241.551 19.1551C247.396 19.1551 252.572 22.1795 254.976 26.921L249.391 30.1659C247.998 27.2781 245.111 25.5454 241.5 25.5454C238.852 25.5454 236.634 26.4371 234.811 28.242C233.075 30.0449 232.165 32.279 232.165 34.9737C232.165 37.6702 233.075 39.9044 234.811 41.7073C236.634 43.5122 238.852 44.4039 241.5 44.4039C245.059 44.4039 248.048 42.6185 249.493 39.7834L255.097 42.962C252.52 47.7698 247.398 50.7941 241.551 50.7941C237.046 50.7941 233.265 49.282 230.187 46.2244" fill="#0A1647"/>
<path fill-rule="evenodd" clip-rule="evenodd" d="M30.6829 25.7424L39.4064 45.0595L52.3901 37.5863L52.3999 37.5824V22.6244L30.6829 25.7424Z" fill="#2BBDF7"/>
<path fill-rule="evenodd" clip-rule="evenodd" d="M69.1669 11.4088L61.0629 8.36098L52.4019 7.66245V54.1463L65.3953 61.6234L75.651 40.6673L69.1826 20.4039L69.1669 11.4088Z" fill="#2891F9"/>
<path fill-rule="evenodd" clip-rule="evenodd" d="M68.4067 7.66635L65.3973 15.1415H65.3934V61.6195L78.3888 54.1444V7.66635H68.4067Z" fill="#2BBDF7"/>
<path fill-rule="evenodd" clip-rule="evenodd" d="M65.3953 0.185333L52.3999 7.66631L65.3953 15.1453L78.3907 7.66631L65.3953 0.185333Z" fill="#2B6DEF"/>
<path fill-rule="evenodd" clip-rule="evenodd" d="M39.4123 30.0956V30.0917L26.4188 15.5747L0.429932 7.66052L0.429932 54.1386L13.4214 61.6176L17.1344 35.8966L26.4188 37.5805V37.5727L39.4142 45.0498V30.0956H39.4123Z" fill="#2891F9"/>
<path fill-rule="evenodd" clip-rule="evenodd" d="M137.419 11.5298L124.664 32.5697L111.96 11.5298H104.497V50.0039H111.426V23.5512L122.898 42.5619H126.423L137.902 23.6176V50.0019H144.89V11.5298H137.419Z" fill="#0A1647"/>
<path fill-rule="evenodd" clip-rule="evenodd" d="M13.4254 0.183411L0.426025 7.66243L39.4045 30.1054L45.2944 26.7161L52.3979 22.6244L13.4254 0.183411Z" fill="#2B6DEF"/>
<path fill-rule="evenodd" clip-rule="evenodd" d="M13.4254 30.0976H13.4234V61.6176L26.4188 54.1405V37.5766L13.4254 30.0976Z" fill="#2BBDF7"/>
</g>
<defs>
<clipPath id="clip0">
<rect width="256" height="62" fill="white"/>
</clipPath>
</defs>
</svg>
